<svg width="48" height="48" viewBox="0 0 48 48" fill="none" xmlns="http://www.w3.org/2000/svg">
    <path d="M34.9005 34.5998C31.5405 34.5998 28.4405 33.0198 26.4205 30.2398C25.9405 29.5798 26.0805 28.6398 26.7405 28.1398C27.4005 27.6398 28.3405 27.7998 28.8405 28.4598C30.3005 30.4398 32.5005 31.5798 34.9005 31.5798C39.0805 31.5798 42.5005 28.1798 42.5005 23.9798C42.5005 19.7798 39.1005 16.3798 34.9005 16.3798C32.0605 16.3798 29.3805 17.8998 27.9205 20.3198L22.6205 29.1398C20.6205 32.4798 16.9605 34.5398 13.0805 34.5398C7.24047 34.5398 2.48047 29.7798 2.48047 23.9398C2.48047 18.0998 7.24047 13.3398 13.0805 13.3398C16.4405 13.3398 19.5405 14.9198 21.5605 17.6998C22.0405 18.3598 21.9005 19.2998 21.2405 19.7998C20.5605 20.2998 19.6405 20.1398 19.1405 19.4798C17.7005 17.5398 15.5005 16.3998 13.1005 16.3998C8.92047 16.3998 5.50047 19.7998 5.50047 23.9998C5.50047 28.1998 8.90047 31.5998 13.1005 31.5998C15.9405 31.5998 18.6205 30.0798 20.0805 27.6598L25.3805 18.8398C27.3805 15.4998 31.0405 13.4398 34.9205 13.4398C40.7605 13.4398 45.5205 18.1998 45.5205 24.0398C45.5205 29.8798 40.7405 34.5998 34.9005 34.5998Z" fill="#408AFD"/>
    <path d="M13 28C15.2091 28 17 26.2091 17 24C17 21.7909 15.2091 20 13 20C10.7909 20 9 21.7909 9 24C9 26.2091 10.7909 28 13 28Z" fill="#408AFD"/>
    <path d="M35 28C37.2091 28 39 26.2091 39 24C39 21.7909 37.2091 20 35 20C32.7909 20 31 21.7909 31 24C31 26.2091 32.7909 28 35 28Z" fill="#408AFD"/>
</svg>